<svg xmlns="http://www.w3.org/2000/svg" xmlns:xlink="http://www.w3.org/1999/xlink" viewBox="0 0 24 24" fill="#242424">
  <path d="M16.5,3C13.6,3,12,5.1,12,5.1S10.4,3,7.5,3C4.5,3,2,5.5,2,8.5c0,4.2,4.9,8.2,6.3,9.5c1.6,1.5,3.7,3.4,3.7,3.4s2.1-1.9,3.7-3.4c1.4-1.3,6.3-5.3,6.3-9.5C22,5.5,19.5,3,16.5,3z M14.8,16.1c-0.2,0.2-0.3,0.3-0.5,0.4c-0.8,0.7-1.6,1.5-2.4,2.1c-0.7-0.6-1.6-1.4-2.4-2.1c-0.1-0.1-0.3-0.3-0.5-0.4C7.8,14.8,4,11.4,4,8.5C4,6.6,5.6,5,7.5,5c1.8,0,2.9,1.3,2.9,1.3L12,8l1.6-1.7c0,0,1.1-1.3,2.9-1.3C18.4,5,20,6.6,20,8.5C20,11.4,16.2,14.8,14.8,16.1z" fill="#242424" />
</svg>