<svg xmlns="http://www.w3.org/2000/svg" xmlns:xlink="http://www.w3.org/1999/xlink" viewBox="0 0 24 24" fill="#242424">
  <path d="M14.994141 3.2929688C14.46184 3.289291 14 3.7340469 14 4.2949219C14 4.7369219 14.29075 5.1351406 14.71875 5.2441406C17.570625 5.9707031 19.717375 8.4164062 19.974609 11.396484C19.991758 11.595156 20 11.796938 20 12C20 15.249 17.76075 17.980859 14.71875 18.755859C14.29075 18.864859 14 19.263078 14 19.705078C14 20.346078 14.604563 20.835734 15.226562 20.677734C19.120563 19.688734 22 16.173 22 12C22 7.827 19.120563 4.3112656 15.226562 3.3222656C15.148813 3.3025156 15.070184 3.2934941 14.994141 3.2929688 z M 11.109375 4.4179688C10.827773 4.3848691 10.529219 4.4707812 10.292969 4.7070312L6 9L4 9C2.895 9 2 9.895 2 11L2 13C2 14.105 2.895 15 4 15L6 15L10.292969 19.292969C10.922969 19.922969 12 19.476938 12 18.585938L12 5.4140625C12 4.8571875 11.578711 4.4731348 11.109375 4.4179688 z M 14.960938 7.5371094C14.456937 7.5562344 14 7.9785156 14 8.5410156L14 8.5644531C14 8.9164531 14.185141 9.2440625 14.494141 9.4140625C15.414141 9.9210625 16 10.888 16 12C16 13.112 15.414141 14.077984 14.494141 14.583984C14.185141 14.753984 14 15.083547 14 15.435547L14 15.457031C14 16.208031 14.814797 16.710891 15.466797 16.337891C16.986797 15.468891 18 13.853 18 12C18 10.147 16.986797 8.5321094 15.466797 7.6621094C15.303797 7.5691094 15.128937 7.5307344 14.960938 7.5371094 z" fill="#242424" />
</svg>